<?xml version="1.0" encoding="UTF-8"?>
<!DOCTYPE svg PUBLIC "-//W3C//DTD SVG 1.1//EN" "http://www.w3.org/Graphics/SVG/1.1/DTD/svg11.dtd">
<svg xmlns="http://www.w3.org/2000/svg" version="1.1" width="2053px" height="1829px" style="shape-rendering:geometricPrecision; text-rendering:geometricPrecision; image-rendering:optimizeQuality; fill-rule:evenodd; clip-rule:evenodd" xmlns:xlink="http://www.w3.org/1999/xlink">
<g><path style="opacity:1" fill="#ff1e00" d="M 692.5,657.5 C 1025.5,658.167 1358.5,658.833 1691.5,659.5C 1627.7,722.799 1564.03,786.299 1500.5,850C 1245.17,850.333 989.833,850.667 734.5,851C 659.289,854.964 593.955,881.964 538.5,932C 459.167,1011.33 379.833,1090.67 300.5,1170C 202.793,1170.17 105.126,1170.67 7.5,1171.5C 6.47899,1171 6.31232,1170.33 7,1169.5C 138.167,1038.33 269.333,907.167 400.5,776C 482.244,699.333 579.577,659.833 692.5,657.5 Z"/></g>
<g><path style="opacity:0.749" fill="#ff391f" d="M 692.5,657.5 C 1025.83,657.167 1359.17,657.5 1692.5,658.5C 1692.38,659.107 1692.04,659.44 1691.5,659.5C 1358.5,658.833 1025.5,658.167 692.5,657.5 Z"/></g>
<g><path style="opacity:0.999" fill="#ff1e00" d="M 2052.5,658.5 C 2052.5,659.5 2052.5,660.5 2052.5,661.5C 1882.51,830.988 1712.85,1000.49 1543.5,1170C 1437.13,1170.17 1330.79,1170.67 1224.5,1171.5C 1223.33,1170.14 1223.67,1169.14 1225.5,1168.5C 1226.12,1168.61 1226.62,1168.94 1227,1169.5C 1233.5,1163 1240,1156.5 1246.5,1150C 1245.94,1149.62 1245.61,1149.12 1245.5,1148.5C 1408.63,984.868 1571.97,821.368 1735.5,658C 1841.24,657.169 1946.9,657.336 2052.5,658.5 Z"/></g>
<g><path style="opacity:0.998" fill="#ff1e00" d="M 731.5,881.5 C 976.833,882.167 1222.17,882.833 1467.5,883.5C 1408.64,941.861 1349.64,1000.69 1290.5,1060C 1117.15,1060.01 943.817,1060.68 770.5,1062C 740.056,1065.82 713.39,1077.82 690.5,1098C 666.5,1122 642.5,1146 618.5,1170C 529.126,1170.17 439.793,1170.67 350.5,1171.5C 349.167,1170.5 349.167,1169.5 350.5,1168.5C 429.014,1090.15 507.68,1011.99 586.5,934C 628.732,900.242 677.066,882.742 731.5,881.5 Z"/></g>
<g><path style="opacity:0.337" fill="#ff4d35" d="M 731.5,881.5 C 977.168,881.167 1222.83,881.5 1468.5,882.5C 1468.38,883.107 1468.04,883.44 1467.5,883.5C 1222.17,882.833 976.833,882.167 731.5,881.5 Z"/></g>
<g><path style="opacity:0.926" fill="#ff2a0d" d="M 1673.5,1104.5 C 1691.83,1104.5 1710.17,1104.5 1728.5,1104.5C 1728.8,1108.77 1728.46,1112.93 1727.5,1117C 1721.18,1117.5 1714.84,1117.67 1708.5,1117.5C 1708.5,1135.5 1708.5,1153.5 1708.5,1171.5C 1703.55,1170.67 1698.55,1170.34 1693.5,1170.5C 1693.5,1152.83 1693.5,1135.17 1693.5,1117.5C 1686.83,1117.5 1680.17,1117.5 1673.5,1117.5C 1673.5,1113.17 1673.5,1108.83 1673.5,1104.5 Z"/></g>
<g><path style="opacity:0.97" fill="#ff2306" d="M 1788.5,1170.5 C 1788.67,1153.83 1788.5,1137.16 1788,1120.5C 1787.21,1121.74 1786.71,1123.08 1786.5,1124.5C 1783.32,1139.22 1779.82,1153.88 1776,1168.5C 1773.79,1169.76 1771.29,1170.43 1768.5,1170.5C 1765.91,1170.47 1763.41,1170.14 1761,1169.5C 1757.34,1155.51 1753.67,1141.51 1750,1127.5C 1749.5,1141.83 1749.33,1156.16 1749.5,1170.5C 1744.83,1170.5 1740.17,1170.5 1735.5,1170.5C 1735.5,1148.5 1735.5,1126.5 1735.5,1104.5C 1742.17,1104.33 1748.84,1104.5 1755.5,1105C 1760.5,1118.83 1764.67,1133 1768,1147.5C 1772,1133.5 1776,1119.5 1780,1105.5C 1787.08,1104.52 1794.25,1104.19 1801.5,1104.5C 1801.5,1126.5 1801.5,1148.5 1801.5,1170.5C 1797.17,1170.5 1792.83,1170.5 1788.5,1170.5 Z"/></g>
<g><path style="opacity:0.4" fill="#ff6550" d="M 1788.5,1170.5 C 1787.83,1155.17 1787.17,1139.83 1786.5,1124.5C 1786.71,1123.08 1787.21,1121.74 1788,1120.5C 1788.5,1137.16 1788.67,1153.83 1788.5,1170.5 Z"/></g>
<g><path style="opacity:0.996" fill="#ff462a" d="M 1245.5,1148.5 C 1245.61,1149.12 1245.94,1149.62 1246.5,1150C 1240,1156.5 1233.5,1163 1227,1169.5C 1226.62,1168.94 1226.12,1168.61 1225.5,1168.5C 1231.83,1161.5 1238.5,1154.83 1245.5,1148.5 Z"/></g>
</svg>
